G04 Layer: TopPasteMaskLayer*
G04 EasyEDA v6.3.22, 2020-01-23T08:33:16+01:00*
G04 c9beca13151b413282484c31864a17c3,a11fdbbf625d454fa155e63b1a2a2389,10*
G04 Gerber Generator version 0.2*
G04 Scale: 100 percent, Rotated: No, Reflected: No *
G04 Dimensions in inches *
G04 leading zeros omitted , absolute positions ,2 integer and 4 decimal *
%FSLAX24Y24*%
%MOIN*%
G90*
G70D02*

%ADD14C,0.023622*%
%ADD16R,0.045670X0.057087*%
%ADD17R,0.057087X0.045670*%
%ADD18R,0.049213X0.027559*%
%ADD19R,0.016000X0.071000*%

%LPD*%
G54D14*
G01X12539Y16000D02*
G01X11870Y16000D01*
G01X12539Y15500D02*
G01X11870Y15500D01*
G01X12539Y15000D02*
G01X11870Y15000D01*
G01X12539Y14500D02*
G01X11870Y14500D01*
G01X12539Y14000D02*
G01X11870Y14000D01*
G01X12539Y13500D02*
G01X11870Y13500D01*
G01X12539Y13000D02*
G01X11870Y13000D01*
G01X12539Y12500D02*
G01X11870Y12500D01*
G01X16629Y16000D02*
G01X15960Y16000D01*
G01X16629Y15500D02*
G01X15960Y15500D01*
G01X16629Y15000D02*
G01X15960Y15000D01*
G01X16629Y14500D02*
G01X15960Y14500D01*
G01X16629Y14000D02*
G01X15960Y14000D01*
G01X16629Y13500D02*
G01X15960Y13500D01*
G01X16629Y13000D02*
G01X15960Y13000D01*
G01X16629Y12500D02*
G01X15960Y12500D01*
G54D16*
G01X6850Y10750D03*
G01X7650Y10750D03*
G01X18350Y5250D03*
G01X19150Y5250D03*
G54D17*
G01X10750Y12850D03*
G01X10750Y13650D03*
G01X6750Y21650D03*
G01X6750Y20850D03*
G01X6750Y18850D03*
G01X6750Y19650D03*
G54D18*
G01X5242Y16000D03*
G01X4257Y15626D03*
G01X4257Y16373D03*
G54D19*
G01X9901Y21549D03*
G01X9645Y21549D03*
G01X9389Y21549D03*
G01X9133Y21549D03*
G01X8877Y21549D03*
G01X8622Y21549D03*
G01X8366Y21549D03*
G01X8110Y21549D03*
G01X7854Y21549D03*
G01X7598Y21549D03*
G01X7598Y18950D03*
G01X7854Y18950D03*
G01X8110Y18950D03*
G01X8366Y18950D03*
G01X8622Y18950D03*
G01X8877Y18950D03*
G01X9133Y18950D03*
G01X9389Y18950D03*
G01X9645Y18950D03*
G01X9901Y18950D03*
G54D16*
G01X7650Y14000D03*
G01X6850Y14000D03*
G01X7650Y15250D03*
G01X6850Y15250D03*
G54D17*
G01X3750Y10350D03*
G01X3750Y11150D03*
G01X4250Y12350D03*
G01X4250Y13150D03*
G54D18*
G01X7742Y12250D03*
G01X6757Y11876D03*
G01X6757Y12623D03*
M00*
M02*
