G04 Layer: TopSilkLayer*
G04 EasyEDA v6.3.22, 2020-01-23T08:33:16+01:00*
G04 c9beca13151b413282484c31864a17c3,a11fdbbf625d454fa155e63b1a2a2389,10*
G04 Gerber Generator version 0.2*
G04 Scale: 100 percent, Rotated: No, Reflected: No *
G04 Dimensions in inches *
G04 leading zeros omitted , absolute positions ,2 integer and 4 decimal *
%FSLAX24Y24*%
%MOIN*%
G90*
G70D02*

%ADD10C,0.010000*%
%ADD14C,0.023622*%
%ADD28C,0.007870*%
%ADD29C,0.008000*%
%ADD30C,0.007992*%
%ADD31C,0.007874*%
%ADD32C,0.006000*%

%LPD*%
G54D28*
G01X7468Y10342D02*
G01X7988Y10342D01*
G01X7988Y11157D01*
G01X7468Y11157D01*
G01X7022Y10342D02*
G01X6503Y10342D01*
G01X6503Y11157D01*
G01X7022Y11157D01*
G54D10*
G01X3156Y21953D02*
G01X3156Y16003D01*
G01X3156Y16003D02*
G01X716Y16003D01*
G01X716Y16003D02*
G01X396Y16003D01*
G01X396Y16003D02*
G01X396Y21953D01*
G01X396Y21953D02*
G01X716Y21953D01*
G01X716Y21953D02*
G01X3156Y21953D01*
G01X716Y16003D02*
G01X716Y21953D01*
G01X2250Y25250D02*
G01X2250Y23250D01*
G01X22250Y23250D01*
G01X22250Y25250D01*
G01X2250Y25250D01*
G01X3250Y24250D02*
G01X2250Y24250D01*
G01X3250Y23250D02*
G01X3250Y24250D01*
G54D29*
G01X23000Y22750D02*
G01X22250Y22750D01*
G01X22250Y21750D01*
G01X25250Y21750D01*
G01X25250Y22750D01*
G54D30*
G01X25250Y22750D02*
G01X23000Y22750D01*
G54D10*
G01X22524Y9798D02*
G01X22524Y21248D01*
G01X22524Y21248D02*
G01X24964Y21248D01*
G01X24964Y21248D02*
G01X25284Y21248D01*
G01X25284Y21248D02*
G01X25284Y9798D01*
G01X25284Y9798D02*
G01X24964Y9798D01*
G01X24964Y9798D02*
G01X22524Y9798D01*
G01X24964Y21248D02*
G01X24964Y9798D01*
G01X14275Y3090D02*
G01X20225Y3090D01*
G01X20225Y3090D02*
G01X20225Y650D01*
G01X20225Y650D02*
G01X20225Y330D01*
G01X20225Y330D02*
G01X14275Y330D01*
G01X14275Y330D02*
G01X14275Y650D01*
G01X14275Y650D02*
G01X14275Y3090D01*
G01X20225Y650D02*
G01X14275Y650D01*
G01X3156Y15752D02*
G01X3156Y9802D01*
G01X3156Y9802D02*
G01X716Y9802D01*
G01X716Y9802D02*
G01X396Y9802D01*
G01X396Y9802D02*
G01X396Y15752D01*
G01X396Y15752D02*
G01X716Y15752D01*
G01X716Y15752D02*
G01X3156Y15752D01*
G01X716Y9802D02*
G01X716Y15752D01*
G01X22410Y3369D02*
G01X22410Y6130D01*
G01X22410Y6130D02*
G01X24850Y6130D01*
G01X24850Y6130D02*
G01X25169Y6130D01*
G01X25169Y6130D02*
G01X25169Y3369D01*
G01X25169Y3369D02*
G01X24850Y3369D01*
G01X24850Y3369D02*
G01X22410Y3369D01*
G01X24850Y6130D02*
G01X24850Y3369D01*
G01X20381Y21268D02*
G01X20381Y9818D01*
G01X20381Y9818D02*
G01X17941Y9818D01*
G01X17941Y9818D02*
G01X17621Y9818D01*
G01X17621Y9818D02*
G01X17621Y21268D01*
G01X17621Y21268D02*
G01X17941Y21268D01*
G01X17941Y21268D02*
G01X20381Y21268D01*
G01X17941Y9818D02*
G01X17941Y21268D01*
G54D28*
G01X18968Y4842D02*
G01X19488Y4842D01*
G01X19488Y5657D01*
G01X18968Y5657D01*
G01X18522Y4842D02*
G01X18002Y4842D01*
G01X18002Y5657D01*
G01X18522Y5657D01*
G01X11157Y13468D02*
G01X11157Y13988D01*
G01X10342Y13988D01*
G01X10342Y13468D01*
G01X11157Y13022D02*
G01X11157Y12503D01*
G01X10342Y12503D01*
G01X10342Y13022D01*
G01X6342Y21031D02*
G01X6342Y20511D01*
G01X7157Y20511D01*
G01X7157Y21031D01*
G01X6342Y21477D02*
G01X6342Y21996D01*
G01X7157Y21996D01*
G01X7157Y21477D01*
G01X7157Y19468D02*
G01X7157Y19988D01*
G01X6342Y19988D01*
G01X6342Y19468D01*
G01X7157Y19022D02*
G01X7157Y18503D01*
G01X6342Y18503D01*
G01X6342Y19022D01*
G54D10*
G01X5005Y15684D02*
G01X5005Y15425D01*
G01X5005Y15684D01*
G01X5005Y15425D01*
G01X4684Y15425D01*
G01X4684Y16574D02*
G01X5005Y16574D01*
G01X5005Y16315D01*
G54D31*
G01X4395Y16118D02*
G01X4395Y15881D01*
G54D10*
G01X7334Y21196D02*
G01X10168Y21196D01*
G01X7334Y19305D02*
G01X10168Y19305D01*
G01X7334Y21196D02*
G01X7334Y19305D01*
G01X10168Y21194D02*
G01X10168Y19305D01*
G54D28*
G01X7031Y14407D02*
G01X6511Y14407D01*
G01X6511Y13592D01*
G01X7031Y13592D01*
G01X7477Y14407D02*
G01X7997Y14407D01*
G01X7997Y13592D01*
G01X7477Y13592D01*
G01X7031Y15657D02*
G01X6511Y15657D01*
G01X6511Y14842D01*
G01X7031Y14842D01*
G01X7477Y15657D02*
G01X7997Y15657D01*
G01X7997Y14842D01*
G01X7477Y14842D01*
G01X4157Y10968D02*
G01X4157Y11488D01*
G01X3342Y11488D01*
G01X3342Y10968D01*
G01X4157Y10522D02*
G01X4157Y10003D01*
G01X3342Y10003D01*
G01X3342Y10522D01*
G01X3842Y12531D02*
G01X3842Y12011D01*
G01X4657Y12011D01*
G01X4657Y12531D01*
G01X3842Y12977D02*
G01X3842Y13496D01*
G01X4657Y13496D01*
G01X4657Y12977D01*
G54D10*
G01X7505Y11934D02*
G01X7505Y11675D01*
G01X7505Y11934D01*
G01X7505Y11675D01*
G01X7184Y11675D01*
G01X7184Y12824D02*
G01X7505Y12824D01*
G01X7505Y12565D01*
G54D31*
G01X6895Y12368D02*
G01X6895Y12131D01*
G54D10*
G01X13063Y12242D02*
G01X15714Y12242D01*
G01X15714Y16257D01*
G01X12755Y16257D01*
G01X12755Y12242D01*
G01X13063Y12242D01*
G01X20369Y3090D02*
G01X23130Y3090D01*
G01X23130Y3090D02*
G01X23130Y650D01*
G01X23130Y650D02*
G01X23130Y330D01*
G01X23130Y330D02*
G01X20369Y330D01*
G01X20369Y330D02*
G01X20369Y650D01*
G01X20369Y650D02*
G01X20369Y3090D01*
G01X23130Y650D02*
G01X20369Y650D01*
G01X4659Y11270D02*
G01X4659Y11163D01*
G01X4659Y10336D02*
G01X4659Y10229D01*
G01X16159Y5770D02*
G01X16159Y5663D01*
G01X16159Y4836D02*
G01X16159Y4729D01*
G01X4659Y14770D02*
G01X4659Y14663D01*
G01X4659Y13836D02*
G01X4659Y13729D01*
G54D29*
G01X14875Y3794D02*
G01X14802Y3759D01*
G01X14728Y3686D01*
G01X14693Y3613D01*
G01X14693Y3467D01*
G01X14728Y3394D01*
G01X14802Y3323D01*
G01X14875Y3286D01*
G01X14984Y3250D01*
G01X15164Y3250D01*
G01X15275Y3286D01*
G01X15347Y3323D01*
G01X15419Y3394D01*
G01X15456Y3467D01*
G01X15456Y3613D01*
G01X15419Y3686D01*
G01X15347Y3759D01*
G01X15275Y3794D01*
G01X15164Y3794D01*
G01X15164Y3613D02*
G01X15164Y3794D01*
G01X14693Y4034D02*
G01X15456Y4034D01*
G01X14693Y4034D02*
G01X15456Y4544D01*
G01X14693Y4544D02*
G01X15456Y4544D01*
G01X14693Y4784D02*
G01X15456Y4784D01*
G01X14693Y4784D02*
G01X14693Y5038D01*
G01X14728Y5148D01*
G01X14802Y5221D01*
G01X14875Y5257D01*
G01X14984Y5294D01*
G01X15164Y5294D01*
G01X15275Y5257D01*
G01X15347Y5221D01*
G01X15419Y5148D01*
G01X15456Y5038D01*
G01X15456Y4784D01*
G01X16193Y3250D02*
G01X16956Y3250D01*
G01X16193Y3250D02*
G01X16193Y3576D01*
G01X16228Y3686D01*
G01X16264Y3723D01*
G01X16338Y3759D01*
G01X16410Y3759D01*
G01X16484Y3723D01*
G01X16519Y3686D01*
G01X16556Y3576D01*
G01X16556Y3250D01*
G01X16556Y3505D02*
G01X16956Y3759D01*
G01X16193Y3998D02*
G01X16956Y4507D01*
G01X16193Y4507D02*
G01X16956Y3998D01*
G01X17693Y3505D02*
G01X18456Y3505D01*
G01X17693Y3250D02*
G01X17693Y3759D01*
G01X17693Y3998D02*
G01X18456Y4507D01*
G01X17693Y4507D02*
G01X18456Y3998D01*
G01X18943Y3686D02*
G01X18943Y3323D01*
G01X19269Y3286D01*
G01X19234Y3323D01*
G01X19197Y3432D01*
G01X19197Y3540D01*
G01X19234Y3650D01*
G01X19306Y3723D01*
G01X19414Y3759D01*
G01X19488Y3759D01*
G01X19597Y3723D01*
G01X19669Y3650D01*
G01X19706Y3540D01*
G01X19706Y3432D01*
G01X19669Y3323D01*
G01X19634Y3286D01*
G01X19560Y3250D01*
G01X18943Y3998D02*
G01X19706Y4290D01*
G01X18943Y4580D02*
G01X19706Y4290D01*
G01X20875Y3794D02*
G01X20802Y3759D01*
G01X20728Y3686D01*
G01X20693Y3613D01*
G01X20693Y3467D01*
G01X20728Y3394D01*
G01X20802Y3323D01*
G01X20875Y3286D01*
G01X20984Y3250D01*
G01X21164Y3250D01*
G01X21275Y3286D01*
G01X21347Y3323D01*
G01X21419Y3394D01*
G01X21456Y3467D01*
G01X21456Y3613D01*
G01X21419Y3686D01*
G01X21347Y3759D01*
G01X21275Y3794D01*
G01X21164Y3794D01*
G01X21164Y3613D02*
G01X21164Y3794D01*
G01X20693Y4034D02*
G01X21456Y4034D01*
G01X20693Y4034D02*
G01X21456Y4544D01*
G01X20693Y4544D02*
G01X21456Y4544D01*
G01X20693Y4784D02*
G01X21456Y4784D01*
G01X20693Y4784D02*
G01X20693Y5038D01*
G01X20728Y5148D01*
G01X20802Y5221D01*
G01X20875Y5257D01*
G01X20984Y5294D01*
G01X21164Y5294D01*
G01X21275Y5257D01*
G01X21347Y5221D01*
G01X21419Y5148D01*
G01X21456Y5038D01*
G01X21456Y4784D01*
G01X23685Y1557D02*
G01X23322Y1557D01*
G01X23285Y1230D01*
G01X23322Y1265D01*
G01X23431Y1303D01*
G01X23540Y1303D01*
G01X23650Y1265D01*
G01X23722Y1194D01*
G01X23759Y1084D01*
G01X23759Y1011D01*
G01X23722Y903D01*
G01X23650Y830D01*
G01X23540Y794D01*
G01X23431Y794D01*
G01X23322Y830D01*
G01X23285Y865D01*
G01X23250Y938D01*
G01X23998Y1557D02*
G01X24289Y794D01*
G01X24581Y1557D02*
G01X24289Y794D01*
G01X22943Y6686D02*
G01X22943Y6323D01*
G01X23269Y6286D01*
G01X23234Y6323D01*
G01X23197Y6432D01*
G01X23197Y6540D01*
G01X23234Y6650D01*
G01X23306Y6723D01*
G01X23414Y6759D01*
G01X23488Y6759D01*
G01X23597Y6723D01*
G01X23669Y6650D01*
G01X23706Y6540D01*
G01X23706Y6432D01*
G01X23669Y6323D01*
G01X23634Y6286D01*
G01X23560Y6250D01*
G01X22943Y6998D02*
G01X23706Y7290D01*
G01X22943Y7580D02*
G01X23706Y7290D01*
G01X21838Y10250D02*
G01X21802Y10323D01*
G01X21693Y10432D01*
G01X22456Y10432D01*
G01X21693Y11107D02*
G01X21693Y10744D01*
G01X22019Y10707D01*
G01X21984Y10744D01*
G01X21947Y10853D01*
G01X21947Y10963D01*
G01X21984Y11071D01*
G01X22056Y11144D01*
G01X22164Y11180D01*
G01X22238Y11180D01*
G01X22347Y11144D01*
G01X22419Y11071D01*
G01X22456Y10963D01*
G01X22456Y10853D01*
G01X22419Y10744D01*
G01X22384Y10707D01*
G01X22310Y10671D01*
G01X21693Y20432D02*
G01X21728Y20323D01*
G01X21802Y20286D01*
G01X21875Y20286D01*
G01X21947Y20323D01*
G01X21984Y20394D01*
G01X22019Y20540D01*
G01X22056Y20650D01*
G01X22128Y20723D01*
G01X22202Y20759D01*
G01X22310Y20759D01*
G01X22384Y20723D01*
G01X22419Y20686D01*
G01X22456Y20577D01*
G01X22456Y20432D01*
G01X22419Y20323D01*
G01X22384Y20286D01*
G01X22310Y20250D01*
G01X22202Y20250D01*
G01X22128Y20286D01*
G01X22056Y20359D01*
G01X22019Y20467D01*
G01X21984Y20613D01*
G01X21947Y20686D01*
G01X21875Y20723D01*
G01X21802Y20723D01*
G01X21728Y20686D01*
G01X21693Y20577D01*
G01X21693Y20432D01*
G01X21306Y10782D02*
G01X21271Y10890D01*
G01X21161Y10963D01*
G01X20980Y11000D01*
G01X20871Y11000D01*
G01X20689Y10963D01*
G01X20580Y10890D01*
G01X20543Y10782D01*
G01X20543Y10709D01*
G01X20580Y10600D01*
G01X20689Y10526D01*
G01X20871Y10490D01*
G01X20980Y10490D01*
G01X21161Y10526D01*
G01X21271Y10600D01*
G01X21306Y10709D01*
G01X21306Y10782D01*
G01X21306Y20240D02*
G01X20543Y20605D01*
G01X21306Y20750D02*
G01X21306Y20240D01*
G01X21193Y13040D02*
G01X21956Y12750D01*
G01X21193Y13040D02*
G01X21956Y13332D01*
G01X21702Y12859D02*
G01X21702Y13223D01*
G01X21193Y13571D02*
G01X21956Y13571D01*
G01X21193Y13571D02*
G01X21193Y13826D01*
G01X21228Y13934D01*
G01X21302Y14007D01*
G01X21375Y14044D01*
G01X21484Y14080D01*
G01X21664Y14080D01*
G01X21775Y14044D01*
G01X21847Y14007D01*
G01X21919Y13934D01*
G01X21956Y13826D01*
G01X21956Y13571D01*
G01X21375Y14865D02*
G01X21302Y14830D01*
G01X21228Y14757D01*
G01X21193Y14684D01*
G01X21193Y14538D01*
G01X21228Y14465D01*
G01X21302Y14394D01*
G01X21375Y14357D01*
G01X21484Y14321D01*
G01X21664Y14321D01*
G01X21775Y14357D01*
G01X21847Y14394D01*
G01X21919Y14465D01*
G01X21956Y14538D01*
G01X21956Y14684D01*
G01X21919Y14757D01*
G01X21847Y14830D01*
G01X21775Y14865D01*
G01X21193Y15665D02*
G01X21956Y15665D01*
G01X21447Y15905D02*
G01X21956Y15905D01*
G01X21593Y15905D02*
G01X21484Y16015D01*
G01X21447Y16088D01*
G01X21447Y16196D01*
G01X21484Y16269D01*
G01X21593Y16305D01*
G01X21956Y16305D01*
G01X21447Y16546D02*
G01X22210Y16546D01*
G01X21556Y16546D02*
G01X21484Y16619D01*
G01X21447Y16692D01*
G01X21447Y16801D01*
G01X21484Y16873D01*
G01X21556Y16946D01*
G01X21664Y16982D01*
G01X21738Y16982D01*
G01X21847Y16946D01*
G01X21919Y16873D01*
G01X21956Y16801D01*
G01X21956Y16692D01*
G01X21919Y16619D01*
G01X21847Y16546D01*
G01X21447Y17223D02*
G01X21810Y17223D01*
G01X21919Y17259D01*
G01X21956Y17332D01*
G01X21956Y17440D01*
G01X21919Y17513D01*
G01X21810Y17623D01*
G01X21447Y17623D02*
G01X21956Y17623D01*
G01X21193Y17971D02*
G01X21810Y17971D01*
G01X21919Y18007D01*
G01X21956Y18080D01*
G01X21956Y18153D01*
G01X21447Y17863D02*
G01X21447Y18117D01*
G01X21556Y18794D02*
G01X21484Y18757D01*
G01X21447Y18648D01*
G01X21447Y18538D01*
G01X21484Y18430D01*
G01X21556Y18394D01*
G01X21628Y18430D01*
G01X21664Y18503D01*
G01X21702Y18684D01*
G01X21738Y18757D01*
G01X21810Y18794D01*
G01X21847Y18794D01*
G01X21919Y18757D01*
G01X21956Y18648D01*
G01X21956Y18538D01*
G01X21919Y18430D01*
G01X21847Y18394D01*
G01X1661Y9500D02*
G01X1698Y9426D01*
G01X1807Y9317D01*
G01X1044Y9317D01*
G01X1807Y8859D02*
G01X1771Y8969D01*
G01X1661Y9042D01*
G01X1480Y9078D01*
G01X1371Y9078D01*
G01X1188Y9042D01*
G01X1080Y8969D01*
G01X1044Y8859D01*
G01X1044Y8786D01*
G01X1080Y8678D01*
G01X1188Y8605D01*
G01X1371Y8569D01*
G01X1480Y8569D01*
G01X1661Y8605D01*
G01X1771Y8678D01*
G01X1807Y8786D01*
G01X1807Y8859D01*
G01X1807Y8328D02*
G01X1044Y8038D01*
G01X1807Y7746D02*
G01X1044Y8038D01*
G01X3323Y17557D02*
G01X3723Y17557D01*
G01X3505Y17265D01*
G01X3613Y17265D01*
G01X3686Y17230D01*
G01X3723Y17194D01*
G01X3759Y17084D01*
G01X3759Y17011D01*
G01X3723Y16903D01*
G01X3650Y16830D01*
G01X3540Y16794D01*
G01X3432Y16794D01*
G01X3323Y16830D01*
G01X3286Y16865D01*
G01X3250Y16938D01*
G01X3998Y17557D02*
G01X4290Y16794D01*
G01X4580Y17557D02*
G01X4290Y16794D01*
G01X4894Y17557D02*
G01X5294Y17557D01*
G01X5075Y17265D01*
G01X5184Y17265D01*
G01X5257Y17230D01*
G01X5294Y17194D01*
G01X5330Y17084D01*
G01X5330Y17011D01*
G01X5294Y16903D01*
G01X5221Y16830D01*
G01X5111Y16794D01*
G01X5003Y16794D01*
G01X4894Y16830D01*
G01X4857Y16865D01*
G01X4821Y16938D01*
G01X3759Y18698D02*
G01X3686Y18771D01*
G01X3576Y18807D01*
G01X3432Y18807D01*
G01X3323Y18771D01*
G01X3250Y18698D01*
G01X3250Y18625D01*
G01X3286Y18553D01*
G01X3323Y18515D01*
G01X3394Y18480D01*
G01X3613Y18407D01*
G01X3686Y18371D01*
G01X3723Y18334D01*
G01X3759Y18261D01*
G01X3759Y18153D01*
G01X3686Y18080D01*
G01X3576Y18044D01*
G01X3432Y18044D01*
G01X3323Y18080D01*
G01X3250Y18153D01*
G01X4544Y18625D02*
G01X4507Y18698D01*
G01X4434Y18771D01*
G01X4363Y18807D01*
G01X4217Y18807D01*
G01X4144Y18771D01*
G01X4071Y18698D01*
G01X4034Y18625D01*
G01X3998Y18515D01*
G01X3998Y18334D01*
G01X4034Y18225D01*
G01X4071Y18153D01*
G01X4144Y18080D01*
G01X4217Y18044D01*
G01X4363Y18044D01*
G01X4434Y18080D01*
G01X4507Y18153D01*
G01X4544Y18225D01*
G01X4784Y18807D02*
G01X4784Y18044D01*
G01X4784Y18044D02*
G01X5221Y18044D01*
G01X3759Y20198D02*
G01X3686Y20271D01*
G01X3576Y20307D01*
G01X3432Y20307D01*
G01X3323Y20271D01*
G01X3250Y20198D01*
G01X3250Y20125D01*
G01X3286Y20053D01*
G01X3323Y20015D01*
G01X3394Y19980D01*
G01X3613Y19907D01*
G01X3686Y19871D01*
G01X3723Y19834D01*
G01X3759Y19761D01*
G01X3759Y19653D01*
G01X3686Y19580D01*
G01X3576Y19544D01*
G01X3432Y19544D01*
G01X3323Y19580D01*
G01X3250Y19653D01*
G01X3998Y20307D02*
G01X3998Y19544D01*
G01X3998Y20307D02*
G01X4253Y20307D01*
G01X4363Y20271D01*
G01X4434Y20198D01*
G01X4471Y20125D01*
G01X4507Y20015D01*
G01X4507Y19834D01*
G01X4471Y19725D01*
G01X4434Y19653D01*
G01X4363Y19580D01*
G01X4253Y19544D01*
G01X3998Y19544D01*
G01X5038Y20307D02*
G01X4748Y19544D01*
G01X5038Y20307D02*
G01X5330Y19544D01*
G01X4857Y19798D02*
G01X5221Y19798D01*
G01X3794Y21375D02*
G01X3759Y21448D01*
G01X3686Y21521D01*
G01X3613Y21557D01*
G01X3467Y21557D01*
G01X3394Y21521D01*
G01X3323Y21448D01*
G01X3286Y21375D01*
G01X3250Y21265D01*
G01X3250Y21084D01*
G01X3286Y20975D01*
G01X3323Y20903D01*
G01X3394Y20830D01*
G01X3467Y20794D01*
G01X3613Y20794D01*
G01X3686Y20830D01*
G01X3759Y20903D01*
G01X3794Y20975D01*
G01X3794Y21084D01*
G01X3613Y21084D02*
G01X3794Y21084D01*
G01X4034Y21557D02*
G01X4034Y20794D01*
G01X4034Y21557D02*
G01X4544Y20794D01*
G01X4544Y21557D02*
G01X4544Y20794D01*
G01X4784Y21557D02*
G01X4784Y20794D01*
G01X4784Y21557D02*
G01X5038Y21557D01*
G01X5148Y21521D01*
G01X5221Y21448D01*
G01X5257Y21375D01*
G01X5294Y21265D01*
G01X5294Y21084D01*
G01X5257Y20975D01*
G01X5221Y20903D01*
G01X5148Y20830D01*
G01X5038Y20794D01*
G01X4784Y20794D01*
G54D32*
G01X12250Y11855D02*
G01X12250Y11282D01*
G01X12250Y11855D02*
G01X12468Y11282D01*
G01X12685Y11855D02*
G01X12468Y11282D01*
G01X12685Y11855D02*
G01X12685Y11282D01*
G01X13275Y11719D02*
G01X13247Y11773D01*
G01X13193Y11828D01*
G01X13139Y11855D01*
G01X13030Y11855D01*
G01X12975Y11828D01*
G01X12921Y11773D01*
G01X12893Y11719D01*
G01X12865Y11636D01*
G01X12865Y11501D01*
G01X12893Y11419D01*
G01X12921Y11365D01*
G01X12975Y11309D01*
G01X13030Y11282D01*
G01X13139Y11282D01*
G01X13193Y11309D01*
G01X13247Y11365D01*
G01X13275Y11419D01*
G01X13455Y11855D02*
G01X13455Y11282D01*
G01X13455Y11855D02*
G01X13701Y11855D01*
G01X13782Y11828D01*
G01X13810Y11801D01*
G01X13836Y11746D01*
G01X13836Y11665D01*
G01X13810Y11609D01*
G01X13782Y11582D01*
G01X13701Y11555D01*
G01X13455Y11555D01*
G01X14072Y11855D02*
G01X14372Y11855D01*
G01X14207Y11636D01*
G01X14289Y11636D01*
G01X14344Y11609D01*
G01X14372Y11582D01*
G01X14398Y11501D01*
G01X14398Y11446D01*
G01X14372Y11365D01*
G01X14317Y11309D01*
G01X14235Y11282D01*
G01X14153Y11282D01*
G01X14072Y11309D01*
G01X14044Y11336D01*
G01X14017Y11392D01*
G01X14743Y11855D02*
G01X14660Y11828D01*
G01X14606Y11746D01*
G01X14578Y11609D01*
G01X14578Y11528D01*
G01X14606Y11392D01*
G01X14660Y11309D01*
G01X14743Y11282D01*
G01X14797Y11282D01*
G01X14878Y11309D01*
G01X14934Y11392D01*
G01X14960Y11528D01*
G01X14960Y11609D01*
G01X14934Y11746D01*
G01X14878Y11828D01*
G01X14797Y11855D01*
G01X14743Y11855D01*
G01X15305Y11855D02*
G01X15222Y11828D01*
G01X15168Y11746D01*
G01X15140Y11609D01*
G01X15140Y11528D01*
G01X15168Y11392D01*
G01X15222Y11309D01*
G01X15305Y11282D01*
G01X15359Y11282D01*
G01X15440Y11309D01*
G01X15494Y11392D01*
G01X15522Y11528D01*
G01X15522Y11609D01*
G01X15494Y11746D01*
G01X15440Y11828D01*
G01X15359Y11855D01*
G01X15305Y11855D01*
G01X15839Y11855D02*
G01X15756Y11828D01*
G01X15730Y11773D01*
G01X15730Y11719D01*
G01X15756Y11665D01*
G01X15811Y11636D01*
G01X15921Y11609D01*
G01X16002Y11582D01*
G01X16056Y11528D01*
G01X16085Y11473D01*
G01X16085Y11392D01*
G01X16056Y11336D01*
G01X16030Y11309D01*
G01X15947Y11282D01*
G01X15839Y11282D01*
G01X15756Y11309D01*
G01X15730Y11336D01*
G01X15702Y11392D01*
G01X15702Y11473D01*
G01X15730Y11528D01*
G01X15785Y11582D01*
G01X15865Y11609D01*
G01X15975Y11636D01*
G01X16030Y11665D01*
G01X16056Y11719D01*
G01X16056Y11773D01*
G01X16030Y11828D01*
G01X15947Y11855D01*
G01X15839Y11855D01*
G01X6690Y18105D02*
G01X6690Y17532D01*
G01X6500Y18105D02*
G01X6882Y18105D01*
G01X7061Y18105D02*
G01X7443Y17532D01*
G01X7443Y18105D02*
G01X7061Y17532D01*
G01X7623Y18105D02*
G01X7623Y17532D01*
G01X7623Y18105D02*
G01X7868Y18105D01*
G01X7951Y18078D01*
G01X7977Y18051D01*
G01X8005Y17996D01*
G01X8005Y17942D01*
G01X7977Y17886D01*
G01X7951Y17859D01*
G01X7868Y17832D01*
G01X7623Y17832D02*
G01X7868Y17832D01*
G01X7951Y17805D01*
G01X7977Y17778D01*
G01X8005Y17723D01*
G01X8005Y17642D01*
G01X7977Y17586D01*
G01X7951Y17559D01*
G01X7868Y17532D01*
G01X7623Y17532D01*
G01X8348Y18105D02*
G01X8267Y18078D01*
G01X8213Y17996D01*
G01X8185Y17859D01*
G01X8185Y17778D01*
G01X8213Y17642D01*
G01X8267Y17559D01*
G01X8348Y17532D01*
G01X8403Y17532D01*
G01X8485Y17559D01*
G01X8539Y17642D01*
G01X8567Y17778D01*
G01X8567Y17859D01*
G01X8539Y17996D01*
G01X8485Y18078D01*
G01X8403Y18105D01*
G01X8348Y18105D01*
G01X8747Y17996D02*
G01X8802Y18023D01*
G01X8884Y18105D01*
G01X8884Y17532D01*
G01X9227Y18105D02*
G01X9144Y18078D01*
G01X9090Y17996D01*
G01X9064Y17859D01*
G01X9064Y17778D01*
G01X9090Y17642D01*
G01X9144Y17559D01*
G01X9227Y17532D01*
G01X9281Y17532D01*
G01X9364Y17559D01*
G01X9418Y17642D01*
G01X9444Y17778D01*
G01X9444Y17859D01*
G01X9418Y17996D01*
G01X9364Y18078D01*
G01X9281Y18105D01*
G01X9227Y18105D01*
G01X9761Y18105D02*
G01X9680Y18078D01*
G01X9652Y18023D01*
G01X9652Y17969D01*
G01X9680Y17915D01*
G01X9735Y17886D01*
G01X9843Y17859D01*
G01X9925Y17832D01*
G01X9980Y17778D01*
G01X10006Y17723D01*
G01X10006Y17642D01*
G01X9980Y17586D01*
G01X9952Y17559D01*
G01X9871Y17532D01*
G01X9761Y17532D01*
G01X9680Y17559D01*
G01X9652Y17586D01*
G01X9625Y17642D01*
G01X9625Y17723D01*
G01X9652Y17778D01*
G01X9706Y17832D01*
G01X9789Y17859D01*
G01X9897Y17886D01*
G01X9952Y17915D01*
G01X9980Y17969D01*
G01X9980Y18023D01*
G01X9952Y18078D01*
G01X9871Y18105D01*
G01X9761Y18105D01*
G54D29*
G01X11000Y20307D02*
G01X11181Y19544D01*
G01X11364Y20307D02*
G01X11181Y19544D01*
G01X11364Y20307D02*
G01X11544Y19544D01*
G01X11727Y20307D02*
G01X11544Y19544D01*
G01X11967Y20307D02*
G01X12003Y20271D01*
G01X12039Y20307D01*
G01X12003Y20344D01*
G01X11967Y20307D01*
G01X12003Y20053D02*
G01X12003Y19544D01*
G01X12280Y20053D02*
G01X12280Y19544D01*
G01X12280Y19907D02*
G01X12389Y20015D01*
G01X12461Y20053D01*
G01X12571Y20053D01*
G01X12643Y20015D01*
G01X12680Y19907D01*
G01X12680Y19544D01*
G01X13356Y20307D02*
G01X13356Y19544D01*
G01X13356Y19944D02*
G01X13284Y20015D01*
G01X13210Y20053D01*
G01X13102Y20053D01*
G01X13028Y20015D01*
G01X12956Y19944D01*
G01X12919Y19834D01*
G01X12919Y19761D01*
G01X12956Y19653D01*
G01X13028Y19580D01*
G01X13102Y19544D01*
G01X13210Y19544D01*
G01X13284Y19580D01*
G01X13356Y19653D01*
G01X13596Y20307D02*
G01X13596Y19544D01*
G01X13960Y20053D02*
G01X13596Y19688D01*
G01X13742Y19834D02*
G01X13996Y19544D01*
G01X14672Y20053D02*
G01X14672Y19544D01*
G01X14672Y19944D02*
G01X14600Y20015D01*
G01X14527Y20053D01*
G01X14418Y20053D01*
G01X14344Y20015D01*
G01X14272Y19944D01*
G01X14235Y19834D01*
G01X14235Y19761D01*
G01X14272Y19653D01*
G01X14344Y19580D01*
G01X14418Y19544D01*
G01X14527Y19544D01*
G01X14600Y19580D01*
G01X14672Y19653D01*
G01X14913Y20053D02*
G01X14913Y19544D01*
G01X14913Y19907D02*
G01X15022Y20015D01*
G01X15094Y20053D01*
G01X15203Y20053D01*
G01X15276Y20015D01*
G01X15313Y19907D01*
G01X15313Y19544D01*
G01X15989Y20053D02*
G01X15989Y19544D01*
G01X15989Y19944D02*
G01X15915Y20015D01*
G01X15843Y20053D01*
G01X15735Y20053D01*
G01X15661Y20015D01*
G01X15589Y19944D01*
G01X15552Y19834D01*
G01X15552Y19761D01*
G01X15589Y19653D01*
G01X15661Y19580D01*
G01X15735Y19544D01*
G01X15843Y19544D01*
G01X15915Y19580D01*
G01X15989Y19653D01*
G01X16228Y20307D02*
G01X16228Y19544D01*
G01X16468Y19871D02*
G01X17123Y19871D01*
G01X11650Y18694D02*
G01X11614Y18765D01*
G01X11505Y18803D01*
G01X11394Y18803D01*
G01X11285Y18765D01*
G01X11250Y18694D01*
G01X11285Y18621D01*
G01X11359Y18584D01*
G01X11540Y18548D01*
G01X11614Y18511D01*
G01X11650Y18438D01*
G01X11650Y18403D01*
G01X11614Y18330D01*
G01X11505Y18294D01*
G01X11394Y18294D01*
G01X11285Y18330D01*
G01X11250Y18403D01*
G01X11998Y19057D02*
G01X11998Y18438D01*
G01X12035Y18330D01*
G01X12107Y18294D01*
G01X12181Y18294D01*
G01X11889Y18803D02*
G01X12144Y18803D01*
G01X12421Y18584D02*
G01X12856Y18584D01*
G01X12856Y18657D01*
G01X12821Y18730D01*
G01X12785Y18765D01*
G01X12711Y18803D01*
G01X12602Y18803D01*
G01X12530Y18765D01*
G01X12456Y18694D01*
G01X12421Y18584D01*
G01X12421Y18511D01*
G01X12456Y18403D01*
G01X12530Y18330D01*
G01X12602Y18294D01*
G01X12711Y18294D01*
G01X12785Y18330D01*
G01X12856Y18403D01*
G01X13097Y18803D02*
G01X13097Y18438D01*
G01X13134Y18330D01*
G01X13206Y18294D01*
G01X13314Y18294D01*
G01X13388Y18330D01*
G01X13497Y18438D01*
G01X13497Y18803D02*
G01X13497Y18294D01*
G01X13736Y18584D02*
G01X14173Y18584D01*
G01X14173Y18657D01*
G01X14136Y18730D01*
G01X14101Y18765D01*
G01X14027Y18803D01*
G01X13918Y18803D01*
G01X13846Y18765D01*
G01X13773Y18694D01*
G01X13736Y18584D01*
G01X13736Y18511D01*
G01X13773Y18403D01*
G01X13846Y18330D01*
G01X13918Y18294D01*
G01X14027Y18294D01*
G01X14101Y18330D01*
G01X14173Y18403D01*
G01X14414Y18803D02*
G01X14414Y18294D01*
G01X14414Y18584D02*
G01X14450Y18694D01*
G01X14522Y18765D01*
G01X14594Y18803D01*
G01X14705Y18803D01*
G01X14944Y18803D02*
G01X14944Y18438D01*
G01X14981Y18330D01*
G01X15053Y18294D01*
G01X15163Y18294D01*
G01X15235Y18330D01*
G01X15344Y18438D01*
G01X15344Y18803D02*
G01X15344Y18294D01*
G01X15585Y18803D02*
G01X15585Y18294D01*
G01X15585Y18657D02*
G01X15693Y18765D01*
G01X15765Y18803D01*
G01X15875Y18803D01*
G01X15947Y18765D01*
G01X15985Y18657D01*
G01X15985Y18294D01*
G01X16660Y18803D02*
G01X16660Y18221D01*
G01X16625Y18111D01*
G01X16588Y18075D01*
G01X16514Y18038D01*
G01X16406Y18038D01*
G01X16334Y18075D01*
G01X16660Y18694D02*
G01X16588Y18765D01*
G01X16514Y18803D01*
G01X16406Y18803D01*
G01X16334Y18765D01*
G01X16260Y18694D01*
G01X16225Y18584D01*
G01X16225Y18511D01*
G01X16260Y18403D01*
G01X16334Y18330D01*
G01X16406Y18294D01*
G01X16514Y18294D01*
G01X16588Y18330D01*
G01X16660Y18403D01*
G54D32*
G01X7150Y11704D02*
G01X7150Y11274D01*
G01X7150Y11704D02*
G01X7334Y11704D01*
G01X7395Y11683D01*
G01X7415Y11663D01*
G01X7436Y11622D01*
G01X7436Y11581D01*
G01X7415Y11540D01*
G01X7395Y11520D01*
G01X7334Y11499D01*
G01X7150Y11499D01*
G01X7293Y11499D02*
G01X7436Y11274D01*
G01X7571Y11622D02*
G01X7612Y11642D01*
G01X7673Y11704D01*
G01X7673Y11274D01*
G01X2954Y19295D02*
G01X2627Y19295D01*
G01X2565Y19316D01*
G01X2545Y19336D01*
G01X2525Y19377D01*
G01X2525Y19418D01*
G01X2545Y19459D01*
G01X2565Y19480D01*
G01X2627Y19500D01*
G01X2668Y19500D01*
G01X2954Y19160D02*
G01X2525Y19160D01*
G01X2954Y19160D02*
G01X2954Y18976D01*
G01X2934Y18915D01*
G01X2913Y18895D01*
G01X2872Y18874D01*
G01X2811Y18874D01*
G01X2770Y18895D01*
G01X2750Y18915D01*
G01X2729Y18976D01*
G01X2729Y19160D01*
G01X2954Y18535D02*
G01X2668Y18739D01*
G01X2668Y18432D01*
G01X2954Y18535D02*
G01X2525Y18535D01*
G01X12750Y22953D02*
G01X12750Y22525D01*
G01X12750Y22953D02*
G01X12934Y22953D01*
G01X12994Y22934D01*
G01X13015Y22913D01*
G01X13035Y22871D01*
G01X13035Y22811D01*
G01X13015Y22769D01*
G01X12994Y22750D01*
G01X12934Y22728D01*
G01X12750Y22728D01*
G01X13171Y22871D02*
G01X13211Y22892D01*
G01X13273Y22953D01*
G01X13273Y22525D01*
G01X23750Y23203D02*
G01X23750Y22775D01*
G01X24035Y23203D02*
G01X24035Y22775D01*
G01X23750Y23000D02*
G01X24035Y23000D01*
G01X24171Y23121D02*
G01X24211Y23142D01*
G01X24273Y23203D01*
G01X24273Y22775D01*
G01X22796Y15705D02*
G01X23122Y15705D01*
G01X23185Y15684D01*
G01X23205Y15663D01*
G01X23225Y15623D01*
G01X23225Y15582D01*
G01X23205Y15540D01*
G01X23185Y15519D01*
G01X23122Y15500D01*
G01X23081Y15500D01*
G01X22796Y15840D02*
G01X23225Y15840D01*
G01X22796Y15840D02*
G01X22796Y16023D01*
G01X22815Y16084D01*
G01X22836Y16105D01*
G01X22877Y16126D01*
G01X22939Y16126D01*
G01X22980Y16105D01*
G01X23000Y16084D01*
G01X23021Y16023D01*
G01X23021Y15840D01*
G01X22856Y16505D02*
G01X22815Y16486D01*
G01X22796Y16425D01*
G01X22796Y16384D01*
G01X22815Y16321D01*
G01X22877Y16280D01*
G01X22980Y16261D01*
G01X23081Y16261D01*
G01X23164Y16280D01*
G01X23205Y16321D01*
G01X23225Y16384D01*
G01X23225Y16403D01*
G01X23205Y16465D01*
G01X23164Y16505D01*
G01X23102Y16527D01*
G01X23081Y16527D01*
G01X23021Y16505D01*
G01X22980Y16465D01*
G01X22960Y16403D01*
G01X22960Y16384D01*
G01X22980Y16321D01*
G01X23021Y16280D01*
G01X23081Y16261D01*
G01X16955Y2703D02*
G01X16955Y2376D01*
G01X16934Y2315D01*
G01X16914Y2294D01*
G01X16872Y2275D01*
G01X16831Y2275D01*
G01X16790Y2294D01*
G01X16769Y2315D01*
G01X16750Y2376D01*
G01X16750Y2417D01*
G01X17089Y2703D02*
G01X17089Y2275D01*
G01X17089Y2703D02*
G01X17273Y2703D01*
G01X17335Y2684D01*
G01X17355Y2663D01*
G01X17376Y2621D01*
G01X17376Y2561D01*
G01X17355Y2519D01*
G01X17335Y2500D01*
G01X17273Y2478D01*
G01X17089Y2478D01*
G01X17797Y2703D02*
G01X17593Y2275D01*
G01X17510Y2703D02*
G01X17797Y2703D01*
G01X2954Y13044D02*
G01X2627Y13044D01*
G01X2565Y13065D01*
G01X2545Y13085D01*
G01X2525Y13126D01*
G01X2525Y13167D01*
G01X2545Y13208D01*
G01X2565Y13229D01*
G01X2627Y13249D01*
G01X2668Y13249D01*
G01X2954Y12909D02*
G01X2525Y12909D01*
G01X2954Y12909D02*
G01X2954Y12725D01*
G01X2934Y12664D01*
G01X2913Y12644D01*
G01X2872Y12623D01*
G01X2811Y12623D01*
G01X2770Y12644D01*
G01X2750Y12664D01*
G01X2729Y12725D01*
G01X2729Y12909D01*
G01X2954Y12447D02*
G01X2954Y12222D01*
G01X2790Y12345D01*
G01X2790Y12284D01*
G01X2770Y12243D01*
G01X2750Y12222D01*
G01X2688Y12202D01*
G01X2647Y12202D01*
G01X2586Y12222D01*
G01X2545Y12263D01*
G01X2525Y12324D01*
G01X2525Y12386D01*
G01X2545Y12447D01*
G01X2565Y12468D01*
G01X2606Y12488D01*
G01X22796Y4455D02*
G01X23122Y4455D01*
G01X23185Y4434D01*
G01X23205Y4413D01*
G01X23225Y4373D01*
G01X23225Y4332D01*
G01X23205Y4290D01*
G01X23185Y4269D01*
G01X23122Y4250D01*
G01X23081Y4250D01*
G01X22796Y4590D02*
G01X23225Y4590D01*
G01X22796Y4590D02*
G01X22796Y4773D01*
G01X22815Y4834D01*
G01X22836Y4855D01*
G01X22877Y4876D01*
G01X22939Y4876D01*
G01X22980Y4855D01*
G01X23000Y4834D01*
G01X23021Y4773D01*
G01X23021Y4590D01*
G01X22897Y5030D02*
G01X22877Y5030D01*
G01X22836Y5051D01*
G01X22815Y5071D01*
G01X22796Y5113D01*
G01X22796Y5194D01*
G01X22815Y5236D01*
G01X22836Y5255D01*
G01X22877Y5276D01*
G01X22918Y5276D01*
G01X22960Y5255D01*
G01X23021Y5215D01*
G01X23225Y5011D01*
G01X23225Y5296D01*
G01X20204Y15294D02*
G01X19877Y15294D01*
G01X19815Y15315D01*
G01X19795Y15336D01*
G01X19774Y15376D01*
G01X19774Y15417D01*
G01X19795Y15459D01*
G01X19815Y15480D01*
G01X19877Y15500D01*
G01X19918Y15500D01*
G01X20204Y15159D02*
G01X19774Y15159D01*
G01X20204Y15159D02*
G01X20204Y14976D01*
G01X20183Y14915D01*
G01X20163Y14894D01*
G01X20122Y14873D01*
G01X20061Y14873D01*
G01X20020Y14894D01*
G01X19999Y14915D01*
G01X19979Y14976D01*
G01X19979Y15159D01*
G01X20122Y14738D02*
G01X20143Y14698D01*
G01X20204Y14636D01*
G01X19774Y14636D01*
G01X18649Y6204D02*
G01X18649Y5775D01*
G01X18649Y6204D02*
G01X18833Y6204D01*
G01X18894Y6184D01*
G01X18915Y6163D01*
G01X18935Y6122D01*
G01X18935Y6081D01*
G01X18915Y6040D01*
G01X18894Y6020D01*
G01X18833Y6000D01*
G01X18649Y6000D01*
G01X18792Y6000D02*
G01X18935Y5775D01*
G01X19111Y6204D02*
G01X19336Y6204D01*
G01X19214Y6040D01*
G01X19275Y6040D01*
G01X19316Y6020D01*
G01X19336Y6000D01*
G01X19357Y5938D01*
G01X19357Y5897D01*
G01X19336Y5836D01*
G01X19295Y5795D01*
G01X19234Y5775D01*
G01X19173Y5775D01*
G01X19111Y5795D01*
G01X19091Y5815D01*
G01X19070Y5856D01*
G01X9806Y13851D02*
G01X9785Y13892D01*
G01X9744Y13934D01*
G01X9705Y13953D01*
G01X9622Y13953D01*
G01X9581Y13934D01*
G01X9540Y13892D01*
G01X9519Y13851D01*
G01X9500Y13790D01*
G01X9500Y13688D01*
G01X9519Y13626D01*
G01X9540Y13586D01*
G01X9581Y13544D01*
G01X9622Y13525D01*
G01X9705Y13525D01*
G01X9744Y13544D01*
G01X9785Y13586D01*
G01X9806Y13626D01*
G01X10186Y13892D02*
G01X10167Y13934D01*
G01X10105Y13953D01*
G01X10064Y13953D01*
G01X10002Y13934D01*
G01X9961Y13871D01*
G01X9942Y13769D01*
G01X9942Y13667D01*
G01X9961Y13586D01*
G01X10002Y13544D01*
G01X10064Y13525D01*
G01X10085Y13525D01*
G01X10146Y13544D01*
G01X10186Y13586D01*
G01X10207Y13646D01*
G01X10207Y13667D01*
G01X10186Y13728D01*
G01X10146Y13769D01*
G01X10085Y13790D01*
G01X10064Y13790D01*
G01X10002Y13769D01*
G01X9961Y13728D01*
G01X9942Y13667D01*
G01X5807Y21852D02*
G01X5786Y21892D01*
G01X5744Y21934D01*
G01X5705Y21953D01*
G01X5623Y21953D01*
G01X5582Y21934D01*
G01X5540Y21892D01*
G01X5519Y21852D01*
G01X5500Y21790D01*
G01X5500Y21688D01*
G01X5519Y21627D01*
G01X5540Y21586D01*
G01X5582Y21544D01*
G01X5623Y21525D01*
G01X5705Y21525D01*
G01X5744Y21544D01*
G01X5786Y21586D01*
G01X5807Y21627D01*
G01X5961Y21852D02*
G01X5961Y21871D01*
G01X5982Y21913D01*
G01X6003Y21934D01*
G01X6044Y21953D01*
G01X6126Y21953D01*
G01X6167Y21934D01*
G01X6186Y21913D01*
G01X6207Y21871D01*
G01X6207Y21830D01*
G01X6186Y21790D01*
G01X6146Y21728D01*
G01X5942Y21525D01*
G01X6228Y21525D01*
G01X5807Y19102D02*
G01X5786Y19142D01*
G01X5744Y19184D01*
G01X5705Y19203D01*
G01X5623Y19203D01*
G01X5582Y19184D01*
G01X5540Y19142D01*
G01X5519Y19102D01*
G01X5500Y19040D01*
G01X5500Y18938D01*
G01X5519Y18877D01*
G01X5540Y18836D01*
G01X5582Y18794D01*
G01X5623Y18775D01*
G01X5705Y18775D01*
G01X5744Y18794D01*
G01X5786Y18836D01*
G01X5807Y18877D01*
G01X6186Y19203D02*
G01X5982Y19203D01*
G01X5961Y19019D01*
G01X5982Y19040D01*
G01X6044Y19061D01*
G01X6105Y19061D01*
G01X6167Y19040D01*
G01X6207Y19000D01*
G01X6228Y18938D01*
G01X6228Y18896D01*
G01X6207Y18836D01*
G01X6167Y18794D01*
G01X6105Y18775D01*
G01X6044Y18775D01*
G01X5982Y18794D01*
G01X5961Y18815D01*
G01X5942Y18855D01*
G01X5373Y16703D02*
G01X5332Y16684D01*
G01X5290Y16642D01*
G01X5269Y16602D01*
G01X5250Y16540D01*
G01X5250Y16438D01*
G01X5269Y16376D01*
G01X5290Y16336D01*
G01X5332Y16294D01*
G01X5373Y16275D01*
G01X5455Y16275D01*
G01X5494Y16294D01*
G01X5536Y16336D01*
G01X5557Y16376D01*
G01X5576Y16438D01*
G01X5576Y16540D01*
G01X5557Y16602D01*
G01X5536Y16642D01*
G01X5494Y16684D01*
G01X5455Y16703D01*
G01X5373Y16703D01*
G01X5434Y16355D02*
G01X5557Y16234D01*
G01X5711Y16621D02*
G01X5753Y16642D01*
G01X5815Y16703D01*
G01X5815Y16275D01*
G01X8500Y20453D02*
G01X8500Y20146D01*
G01X8519Y20086D01*
G01X8560Y20044D01*
G01X8622Y20025D01*
G01X8664Y20025D01*
G01X8725Y20044D01*
G01X8765Y20086D01*
G01X8785Y20146D01*
G01X8785Y20453D01*
G01X9126Y20453D02*
G01X8921Y20167D01*
G01X9227Y20167D01*
G01X9126Y20453D02*
G01X9126Y20025D01*
G01X8250Y14203D02*
G01X8250Y13775D01*
G01X8250Y14203D02*
G01X8434Y14203D01*
G01X8494Y14184D01*
G01X8515Y14163D01*
G01X8535Y14121D01*
G01X8535Y14080D01*
G01X8515Y14040D01*
G01X8494Y14019D01*
G01X8434Y14000D01*
G01X8250Y14000D01*
G01X8393Y14000D02*
G01X8535Y13775D01*
G01X8692Y14101D02*
G01X8692Y14121D01*
G01X8711Y14163D01*
G01X8732Y14184D01*
G01X8773Y14203D01*
G01X8855Y14203D01*
G01X8896Y14184D01*
G01X8917Y14163D01*
G01X8936Y14121D01*
G01X8936Y14080D01*
G01X8917Y14040D01*
G01X8876Y13978D01*
G01X8671Y13775D01*
G01X8957Y13775D01*
G01X6750Y16203D02*
G01X6750Y15775D01*
G01X6750Y16203D02*
G01X6934Y16203D01*
G01X6994Y16184D01*
G01X7015Y16163D01*
G01X7036Y16121D01*
G01X7036Y16080D01*
G01X7015Y16040D01*
G01X6994Y16019D01*
G01X6934Y16000D01*
G01X6750Y16000D01*
G01X6892Y16000D02*
G01X7036Y15775D01*
G01X7376Y16203D02*
G01X7171Y15917D01*
G01X7477Y15917D01*
G01X7376Y16203D02*
G01X7376Y15775D01*
G01X3500Y9703D02*
G01X3500Y9275D01*
G01X3500Y9703D02*
G01X3684Y9703D01*
G01X3744Y9684D01*
G01X3765Y9663D01*
G01X3786Y9621D01*
G01X3786Y9580D01*
G01X3765Y9540D01*
G01X3744Y9519D01*
G01X3684Y9500D01*
G01X3500Y9500D01*
G01X3642Y9500D02*
G01X3786Y9275D01*
G01X4167Y9703D02*
G01X3961Y9703D01*
G01X3942Y9519D01*
G01X3961Y9540D01*
G01X4023Y9561D01*
G01X4084Y9561D01*
G01X4146Y9540D01*
G01X4186Y9500D01*
G01X4207Y9438D01*
G01X4207Y9396D01*
G01X4186Y9336D01*
G01X4146Y9294D01*
G01X4084Y9275D01*
G01X4023Y9275D01*
G01X3961Y9294D01*
G01X3942Y9315D01*
G01X3921Y9355D01*
G01X5204Y12850D02*
G01X4775Y12850D01*
G01X5204Y12850D02*
G01X5204Y12666D01*
G01X5184Y12605D01*
G01X5163Y12584D01*
G01X5122Y12564D01*
G01X5081Y12564D01*
G01X5040Y12584D01*
G01X5020Y12605D01*
G01X5000Y12666D01*
G01X5000Y12850D01*
G01X5000Y12707D02*
G01X4775Y12564D01*
G01X5143Y12183D02*
G01X5184Y12204D01*
G01X5204Y12265D01*
G01X5204Y12306D01*
G01X5184Y12367D01*
G01X5122Y12408D01*
G01X5020Y12429D01*
G01X4918Y12429D01*
G01X4836Y12408D01*
G01X4795Y12367D01*
G01X4775Y12306D01*
G01X4775Y12285D01*
G01X4795Y12224D01*
G01X4836Y12183D01*
G01X4897Y12163D01*
G01X4918Y12163D01*
G01X4979Y12183D01*
G01X5020Y12224D01*
G01X5040Y12285D01*
G01X5040Y12306D01*
G01X5020Y12367D01*
G01X4979Y12408D01*
G01X4918Y12429D01*
G01X8403Y12126D02*
G01X8384Y12167D01*
G01X8343Y12209D01*
G01X8302Y12230D01*
G01X8239Y12250D01*
G01X8138Y12250D01*
G01X8077Y12230D01*
G01X8035Y12209D01*
G01X7994Y12167D01*
G01X7975Y12126D01*
G01X7975Y12044D01*
G01X7994Y12005D01*
G01X8035Y11963D01*
G01X8077Y11942D01*
G01X8138Y11923D01*
G01X8239Y11923D01*
G01X8302Y11942D01*
G01X8343Y11963D01*
G01X8384Y12005D01*
G01X8403Y12044D01*
G01X8403Y12126D01*
G01X8056Y12065D02*
G01X7934Y11942D01*
G01X8302Y11767D02*
G01X8322Y11767D01*
G01X8363Y11746D01*
G01X8384Y11726D01*
G01X8403Y11684D01*
G01X8403Y11603D01*
G01X8384Y11563D01*
G01X8363Y11542D01*
G01X8322Y11521D01*
G01X8281Y11521D01*
G01X8239Y11542D01*
G01X8178Y11582D01*
G01X7975Y11788D01*
G01X7975Y11501D01*
G01X13750Y14703D02*
G01X13750Y14396D01*
G01X13769Y14336D01*
G01X13810Y14294D01*
G01X13872Y14275D01*
G01X13914Y14275D01*
G01X13975Y14294D01*
G01X14015Y14336D01*
G01X14035Y14396D01*
G01X14035Y14703D01*
G01X14417Y14703D02*
G01X14211Y14703D01*
G01X14192Y14519D01*
G01X14211Y14540D01*
G01X14273Y14561D01*
G01X14335Y14561D01*
G01X14396Y14540D01*
G01X14436Y14500D01*
G01X14457Y14438D01*
G01X14457Y14396D01*
G01X14436Y14336D01*
G01X14396Y14294D01*
G01X14335Y14275D01*
G01X14273Y14275D01*
G01X14211Y14294D01*
G01X14192Y14315D01*
G01X14171Y14355D01*
G01X21455Y2703D02*
G01X21455Y2376D01*
G01X21434Y2315D01*
G01X21414Y2294D01*
G01X21372Y2275D01*
G01X21331Y2275D01*
G01X21290Y2294D01*
G01X21269Y2315D01*
G01X21250Y2376D01*
G01X21250Y2417D01*
G01X21589Y2703D02*
G01X21589Y2275D01*
G01X21589Y2703D02*
G01X21773Y2703D01*
G01X21835Y2684D01*
G01X21855Y2663D01*
G01X21876Y2621D01*
G01X21876Y2561D01*
G01X21855Y2519D01*
G01X21835Y2500D01*
G01X21773Y2478D01*
G01X21589Y2478D01*
G01X22256Y2703D02*
G01X22052Y2703D01*
G01X22031Y2519D01*
G01X22052Y2540D01*
G01X22113Y2561D01*
G01X22175Y2561D01*
G01X22235Y2540D01*
G01X22277Y2500D01*
G01X22297Y2438D01*
G01X22297Y2396D01*
G01X22277Y2336D01*
G01X22235Y2294D01*
G01X22175Y2275D01*
G01X22113Y2275D01*
G01X22052Y2294D01*
G01X22031Y2315D01*
G01X22010Y2355D01*
G01X4750Y9954D02*
G01X4750Y9524D01*
G01X4750Y9524D02*
G01X4995Y9524D01*
G01X5130Y9954D02*
G01X5130Y9524D01*
G01X5130Y9954D02*
G01X5396Y9954D01*
G01X5130Y9749D02*
G01X5294Y9749D01*
G01X5130Y9524D02*
G01X5396Y9524D01*
G01X5531Y9954D02*
G01X5531Y9524D01*
G01X5531Y9954D02*
G01X5674Y9954D01*
G01X5735Y9933D01*
G01X5776Y9892D01*
G01X5797Y9851D01*
G01X5817Y9790D01*
G01X5817Y9688D01*
G01X5797Y9626D01*
G01X5776Y9585D01*
G01X5735Y9544D01*
G01X5674Y9524D01*
G01X5531Y9524D01*
G01X5952Y9872D02*
G01X5993Y9892D01*
G01X6055Y9954D01*
G01X6055Y9524D01*
G01X16000Y6704D02*
G01X16000Y6274D01*
G01X16000Y6274D02*
G01X16245Y6274D01*
G01X16380Y6704D02*
G01X16380Y6274D01*
G01X16380Y6704D02*
G01X16646Y6704D01*
G01X16380Y6499D02*
G01X16544Y6499D01*
G01X16380Y6274D02*
G01X16646Y6274D01*
G01X16781Y6704D02*
G01X16781Y6274D01*
G01X16781Y6704D02*
G01X16924Y6704D01*
G01X16985Y6683D01*
G01X17026Y6642D01*
G01X17047Y6601D01*
G01X17067Y6540D01*
G01X17067Y6438D01*
G01X17047Y6376D01*
G01X17026Y6335D01*
G01X16985Y6294D01*
G01X16924Y6274D01*
G01X16781Y6274D01*
G01X17223Y6601D02*
G01X17223Y6622D01*
G01X17243Y6663D01*
G01X17264Y6683D01*
G01X17305Y6704D01*
G01X17386Y6704D01*
G01X17427Y6683D01*
G01X17448Y6663D01*
G01X17468Y6622D01*
G01X17468Y6581D01*
G01X17448Y6540D01*
G01X17407Y6479D01*
G01X17202Y6274D01*
G01X17489Y6274D01*
G01X3250Y15204D02*
G01X3250Y14774D01*
G01X3250Y14774D02*
G01X3495Y14774D01*
G01X3630Y15204D02*
G01X3630Y14774D01*
G01X3630Y15204D02*
G01X3896Y15204D01*
G01X3630Y14999D02*
G01X3794Y14999D01*
G01X3630Y14774D02*
G01X3896Y14774D01*
G01X4031Y15204D02*
G01X4031Y14774D01*
G01X4031Y15204D02*
G01X4174Y15204D01*
G01X4235Y15183D01*
G01X4276Y15142D01*
G01X4297Y15101D01*
G01X4317Y15040D01*
G01X4317Y14938D01*
G01X4297Y14876D01*
G01X4276Y14835D01*
G01X4235Y14794D01*
G01X4174Y14774D01*
G01X4031Y14774D01*
G01X4493Y15204D02*
G01X4718Y15204D01*
G01X4595Y15040D01*
G01X4657Y15040D01*
G01X4698Y15019D01*
G01X4718Y14999D01*
G01X4739Y14938D01*
G01X4739Y14897D01*
G01X4718Y14835D01*
G01X4677Y14794D01*
G01X4616Y14774D01*
G01X4555Y14774D01*
G01X4493Y14794D01*
G01X4473Y14815D01*
G01X4452Y14856D01*
G54D14*
G75*
G01X15225Y12590D02*
G03X15225Y12592I118J1D01*
G01*
G54D10*
G75*
G01X5941Y11128D02*
G03X4659Y11271I-691J-378D01*
G01*
G75*
G01X4659Y10229D02*
G03X5941Y10372I591J521D01*
G01*
G75*
G01X17441Y5628D02*
G03X16159Y5771I-691J-378D01*
G01*
G75*
G01X16159Y4729D02*
G03X17441Y4872I591J521D01*
G01*
G75*
G01X5941Y14628D02*
G03X4659Y14771I-691J-378D01*
G01*
G75*
G01X4659Y13729D02*
G03X5941Y13872I591J521D01*
G01*
G75*
G01X2800Y23000D02*
G03X2800Y23000I-50J0D01*
G01*
G75*
G01X10075Y20945D02*
G03X10075Y20945I-100J0D01*
G01*
M00*
M02*
