;Layer: Drill PTH
;EasyEDA v6.3.22, 2020-01-23T08:33:16+01:00
;c9beca13151b413282484c31864a17c3,a11fdbbf625d454fa155e63b1a2a2389,10
;Gerber Generator version 0.2
M48
INCH,LZ,00.0000
;Holesize 1 = 0.012 INCH
T01C0.012
;Holesize 2 = 0.035 INCH
T02C0.035
;Holesize 3 = 0.039 INCH
T03C0.039
;Holesize 4 = 0.047 INCH
T04C0.047
;Holesize 5 = 0.047 INCH
T05C0.047
%
G05
G90
T01
X+003250Y+012350
X+011250Y+010000
X+012205Y+014000
X+012205Y+014500
X+012205Y+015000
X+008250Y+011831
X+006750Y+021750
X+006450Y+018550
X+009645Y+018250
X+010010Y+012750
X+012205Y+011500
X+014250Y+011500
X+014250Y+013500
X+005750Y+022750
X+006750Y+020750
X+006750Y+019750
X+008250Y+015750
X+010750Y+015750
X+010750Y+017500
X+005250Y+018250
X+007500Y+011750
X+006000Y+012750
X+007500Y+013250
X+010500Y+008500
X+010825Y+011425
X+010825Y+013575
X+014250Y+007250
X+019500Y+007750
X+015500Y+009500
X+015750Y+003500
X+013500Y+010000
T02
X+005750Y+010750
X+004750Y+010750
X+017250Y+005250
X+016250Y+005250
X+005750Y+014250
X+004750Y+014250
T03
X+002750Y+023750
X+002750Y+024750
X+003750Y+023750
X+003750Y+024750
X+004750Y+023750
X+004750Y+024750
X+005750Y+023750
X+005750Y+024750
X+006750Y+023750
X+006750Y+024750
X+007750Y+023750
X+007750Y+024750
X+008750Y+023750
X+008750Y+024750
X+009750Y+023750
X+009750Y+024750
X+010750Y+023750
X+010750Y+024750
X+011750Y+023750
X+011750Y+024750
X+012750Y+023750
X+012750Y+024750
X+013750Y+023750
X+013750Y+024750
X+014750Y+023750
X+014750Y+024750
X+015750Y+023750
X+015750Y+024750
X+016750Y+023750
X+016750Y+024750
X+017750Y+023750
X+017750Y+024750
X+018750Y+023750
X+018750Y+024750
X+019750Y+023750
X+019750Y+024750
X+020750Y+023750
X+020750Y+024750
X+021750Y+023750
X+021750Y+024750
T04
X+001816Y+021043
X+001816Y+019663
X+001816Y+018283
X+001816Y+016913
X+023864Y+010708
X+023864Y+012088
X+023864Y+013468
X+023864Y+014838
X+023864Y+016218
X+023864Y+017598
X+023864Y+018978
X+023864Y+020358
X+015185Y+001750
X+016564Y+001750
X+017944Y+001750
X+019314Y+001750
X+001816Y+014842
X+001816Y+013462
X+001816Y+012082
X+001816Y+010712
X+023750Y+004059
X+023750Y+005440
X+019041Y+020358
X+019041Y+018978
X+019041Y+017598
X+019041Y+016228
X+019041Y+014848
X+019041Y+013468
X+019041Y+012088
X+019041Y+010708
X+021060Y+001750
X+022439Y+001750
T05
X+024750Y+022250
X+023750Y+022250
X+022750Y+022250
M30
