G04 Layer: BottomSilkLayer*
G04 EasyEDA v6.3.22, 2020-01-23T08:33:16+01:00*
G04 c9beca13151b413282484c31864a17c3,a11fdbbf625d454fa155e63b1a2a2389,10*
G04 Gerber Generator version 0.2*
G04 Scale: 100 percent, Rotated: No, Reflected: No *
G04 Dimensions in inches *
G04 leading zeros omitted , absolute positions ,2 integer and 4 decimal *
%FSLAX24Y24*%
%MOIN*%
G90*
G70D02*

%ADD10C,0.010000*%
%ADD14C,0.023622*%
%ADD28C,0.007870*%
%ADD31C,0.007874*%
%ADD32C,0.006000*%

%LPD*%
G54D28*
G01X11157Y11531D02*
G01X11157Y11011D01*
G01X10342Y11011D01*
G01X10342Y11531D01*
G01X11157Y11977D02*
G01X11157Y12496D01*
G01X10342Y12496D01*
G01X10342Y11977D01*
G54D10*
G01X5994Y11934D02*
G01X5994Y11675D01*
G01X5994Y11934D01*
G01X5994Y11675D01*
G01X6315Y11675D01*
G01X6315Y12824D02*
G01X5994Y12824D01*
G01X5994Y12565D01*
G54D31*
G01X6604Y12368D02*
G01X6604Y12131D01*
G54D28*
G01X3657Y12531D02*
G01X3657Y12011D01*
G01X2842Y12011D01*
G01X2842Y12531D01*
G01X3657Y12977D02*
G01X3657Y13496D01*
G01X2842Y13496D01*
G01X2842Y12977D01*
G01X7842Y12468D02*
G01X7842Y12988D01*
G01X8657Y12988D01*
G01X8657Y12468D01*
G01X7842Y12022D02*
G01X7842Y11503D01*
G01X8657Y11503D01*
G01X8657Y12022D01*
G54D10*
G01X13063Y12757D02*
G01X15714Y12757D01*
G01X15714Y8742D01*
G01X12755Y8742D01*
G01X12755Y12757D01*
G01X13063Y12757D01*
G54D32*
G01X16250Y13605D02*
G01X16250Y13032D01*
G01X16250Y13605D02*
G01X16031Y13032D01*
G01X15813Y13605D02*
G01X16031Y13032D01*
G01X15813Y13605D02*
G01X15813Y13032D01*
G01X15224Y13469D02*
G01X15251Y13523D01*
G01X15306Y13578D01*
G01X15360Y13605D01*
G01X15469Y13605D01*
G01X15524Y13578D01*
G01X15579Y13523D01*
G01X15606Y13469D01*
G01X15633Y13387D01*
G01X15633Y13250D01*
G01X15606Y13169D01*
G01X15579Y13114D01*
G01X15524Y13059D01*
G01X15469Y13032D01*
G01X15360Y13032D01*
G01X15306Y13059D01*
G01X15251Y13114D01*
G01X15224Y13169D01*
G01X15044Y13605D02*
G01X15044Y13032D01*
G01X15044Y13605D02*
G01X14799Y13605D01*
G01X14717Y13578D01*
G01X14689Y13550D01*
G01X14662Y13496D01*
G01X14662Y13414D01*
G01X14689Y13359D01*
G01X14717Y13332D01*
G01X14799Y13305D01*
G01X15044Y13305D01*
G01X14428Y13605D02*
G01X14128Y13605D01*
G01X14291Y13387D01*
G01X14210Y13387D01*
G01X14155Y13359D01*
G01X14128Y13332D01*
G01X14100Y13250D01*
G01X14100Y13196D01*
G01X14128Y13114D01*
G01X14182Y13059D01*
G01X14264Y13032D01*
G01X14346Y13032D01*
G01X14428Y13059D01*
G01X14455Y13087D01*
G01X14482Y13141D01*
G01X13757Y13605D02*
G01X13839Y13578D01*
G01X13893Y13496D01*
G01X13920Y13359D01*
G01X13920Y13278D01*
G01X13893Y13141D01*
G01X13839Y13059D01*
G01X13757Y13032D01*
G01X13702Y13032D01*
G01X13620Y13059D01*
G01X13566Y13141D01*
G01X13539Y13278D01*
G01X13539Y13359D01*
G01X13566Y13496D01*
G01X13620Y13578D01*
G01X13702Y13605D01*
G01X13757Y13605D01*
G01X13195Y13605D02*
G01X13277Y13578D01*
G01X13331Y13496D01*
G01X13359Y13359D01*
G01X13359Y13278D01*
G01X13331Y13141D01*
G01X13277Y13059D01*
G01X13195Y13032D01*
G01X13140Y13032D01*
G01X13059Y13059D01*
G01X13004Y13141D01*
G01X12977Y13278D01*
G01X12977Y13359D01*
G01X13004Y13496D01*
G01X13059Y13578D01*
G01X13140Y13605D01*
G01X13195Y13605D01*
G01X12660Y13605D02*
G01X12742Y13578D01*
G01X12769Y13523D01*
G01X12769Y13469D01*
G01X12742Y13414D01*
G01X12688Y13387D01*
G01X12579Y13359D01*
G01X12497Y13332D01*
G01X12442Y13278D01*
G01X12415Y13223D01*
G01X12415Y13141D01*
G01X12442Y13087D01*
G01X12469Y13059D01*
G01X12551Y13032D01*
G01X12660Y13032D01*
G01X12742Y13059D01*
G01X12769Y13087D01*
G01X12797Y13141D01*
G01X12797Y13223D01*
G01X12769Y13278D01*
G01X12715Y13332D01*
G01X12633Y13359D01*
G01X12524Y13387D01*
G01X12469Y13414D01*
G01X12442Y13469D01*
G01X12442Y13523D01*
G01X12469Y13578D01*
G01X12551Y13605D01*
G01X12660Y13605D01*
G01X10693Y13351D02*
G01X10714Y13392D01*
G01X10755Y13434D01*
G01X10794Y13453D01*
G01X10877Y13453D01*
G01X10918Y13434D01*
G01X10959Y13392D01*
G01X10980Y13351D01*
G01X11000Y13290D01*
G01X11000Y13188D01*
G01X10980Y13126D01*
G01X10959Y13086D01*
G01X10918Y13044D01*
G01X10877Y13025D01*
G01X10794Y13025D01*
G01X10755Y13044D01*
G01X10714Y13086D01*
G01X10693Y13126D01*
G01X10557Y13371D02*
G01X10517Y13392D01*
G01X10456Y13453D01*
G01X10456Y13025D01*
G01X6626Y13453D02*
G01X6667Y13434D01*
G01X6709Y13392D01*
G01X6730Y13351D01*
G01X6750Y13290D01*
G01X6750Y13188D01*
G01X6730Y13126D01*
G01X6709Y13086D01*
G01X6667Y13044D01*
G01X6626Y13025D01*
G01X6544Y13025D01*
G01X6505Y13044D01*
G01X6463Y13086D01*
G01X6442Y13126D01*
G01X6423Y13188D01*
G01X6423Y13290D01*
G01X6442Y13351D01*
G01X6463Y13392D01*
G01X6505Y13434D01*
G01X6544Y13453D01*
G01X6626Y13453D01*
G01X6565Y13105D02*
G01X6442Y12984D01*
G01X6082Y13453D02*
G01X6288Y13167D01*
G01X5980Y13167D01*
G01X6082Y13453D02*
G01X6082Y13025D01*
G01X3500Y14203D02*
G01X3500Y13775D01*
G01X3500Y14203D02*
G01X3315Y14203D01*
G01X3255Y14184D01*
G01X3234Y14163D01*
G01X3213Y14121D01*
G01X3213Y14080D01*
G01X3234Y14040D01*
G01X3255Y14019D01*
G01X3315Y14000D01*
G01X3500Y14000D01*
G01X3357Y14000D02*
G01X3213Y13775D01*
G01X2792Y14203D02*
G01X2996Y13775D01*
G01X3078Y14203D02*
G01X2792Y14203D01*
G01X8500Y13703D02*
G01X8500Y13275D01*
G01X8500Y13703D02*
G01X8315Y13703D01*
G01X8255Y13684D01*
G01X8234Y13663D01*
G01X8214Y13621D01*
G01X8214Y13580D01*
G01X8234Y13540D01*
G01X8255Y13519D01*
G01X8315Y13500D01*
G01X8500Y13500D01*
G01X8356Y13500D02*
G01X8214Y13275D01*
G01X7976Y13703D02*
G01X8038Y13684D01*
G01X8057Y13642D01*
G01X8057Y13601D01*
G01X8038Y13561D01*
G01X7997Y13540D01*
G01X7914Y13519D01*
G01X7853Y13500D01*
G01X7813Y13459D01*
G01X7792Y13417D01*
G01X7792Y13355D01*
G01X7813Y13315D01*
G01X7832Y13294D01*
G01X7894Y13275D01*
G01X7976Y13275D01*
G01X8038Y13294D01*
G01X8057Y13315D01*
G01X8078Y13355D01*
G01X8078Y13417D01*
G01X8057Y13459D01*
G01X8017Y13500D01*
G01X7956Y13519D01*
G01X7873Y13540D01*
G01X7832Y13561D01*
G01X7813Y13601D01*
G01X7813Y13642D01*
G01X7832Y13684D01*
G01X7894Y13703D01*
G01X7976Y13703D01*
G01X14500Y10703D02*
G01X14500Y10396D01*
G01X14480Y10336D01*
G01X14439Y10294D01*
G01X14377Y10275D01*
G01X14335Y10275D01*
G01X14275Y10294D01*
G01X14234Y10336D01*
G01X14214Y10396D01*
G01X14214Y10703D01*
G01X14057Y10601D02*
G01X14057Y10621D01*
G01X14038Y10663D01*
G01X14017Y10684D01*
G01X13976Y10703D01*
G01X13894Y10703D01*
G01X13853Y10684D01*
G01X13832Y10663D01*
G01X13813Y10621D01*
G01X13813Y10580D01*
G01X13832Y10540D01*
G01X13873Y10478D01*
G01X14078Y10275D01*
G01X13792Y10275D01*
G54D14*
G75*
G01X15225Y12410D02*
G02X15225Y12408I118J-1D01*
G01*
M00*
M02*
