G04 Layer: BottomPasteMaskLayer*
G04 EasyEDA v6.3.22, 2020-01-23T08:33:16+01:00*
G04 c9beca13151b413282484c31864a17c3,a11fdbbf625d454fa155e63b1a2a2389,10*
G04 Gerber Generator version 0.2*
G04 Scale: 100 percent, Rotated: No, Reflected: No *
G04 Dimensions in inches *
G04 leading zeros omitted , absolute positions ,2 integer and 4 decimal *
%FSLAX24Y24*%
%MOIN*%
G90*
G70D02*

%ADD14C,0.023622*%

%LPD*%
G54D14*
G01X12539Y9000D02*
G01X11870Y9000D01*
G01X12539Y9500D02*
G01X11870Y9500D01*
G01X12539Y10000D02*
G01X11870Y10000D01*
G01X12539Y10500D02*
G01X11870Y10500D01*
G01X12539Y11000D02*
G01X11870Y11000D01*
G01X12539Y11500D02*
G01X11870Y11500D01*
G01X12539Y12000D02*
G01X11870Y12000D01*
G01X12539Y12500D02*
G01X11870Y12500D01*
G01X16629Y9000D02*
G01X15960Y9000D01*
G01X16629Y9500D02*
G01X15960Y9500D01*
G01X16629Y10000D02*
G01X15960Y10000D01*
G01X16629Y10500D02*
G01X15960Y10500D01*
G01X16629Y11000D02*
G01X15960Y11000D01*
G01X16629Y11500D02*
G01X15960Y11500D01*
G01X16629Y12000D02*
G01X15960Y12000D01*
G01X16629Y12500D02*
G01X15960Y12500D01*
G36*
G01X10464Y12378D02*
G01X10464Y11921D01*
G01X11035Y11921D01*
G01X11035Y12378D01*
G01X10464Y12378D01*
G37*
G36*
G01X10464Y11578D02*
G01X10464Y11121D01*
G01X11035Y11121D01*
G01X11035Y11578D01*
G01X10464Y11578D01*
G37*
G36*
G01X6004Y12112D02*
G01X6004Y12387D01*
G01X5511Y12387D01*
G01X5511Y12112D01*
G01X6004Y12112D01*
G37*
G36*
G01X6988Y11738D02*
G01X6988Y12013D01*
G01X6495Y12013D01*
G01X6495Y11738D01*
G01X6988Y11738D01*
G37*
G36*
G01X6988Y12486D02*
G01X6988Y12761D01*
G01X6495Y12761D01*
G01X6495Y12486D01*
G01X6988Y12486D01*
G37*
G36*
G01X2964Y13378D02*
G01X2964Y12921D01*
G01X3535Y12921D01*
G01X3535Y13378D01*
G01X2964Y13378D01*
G37*
G36*
G01X2964Y12578D02*
G01X2964Y12121D01*
G01X3535Y12121D01*
G01X3535Y12578D01*
G01X2964Y12578D01*
G37*
G36*
G01X8535Y11621D02*
G01X8535Y12078D01*
G01X7964Y12078D01*
G01X7964Y11621D01*
G01X8535Y11621D01*
G37*
G36*
G01X8535Y12421D02*
G01X8535Y12878D01*
G01X7964Y12878D01*
G01X7964Y12421D01*
G01X8535Y12421D01*
G37*
M00*
M02*
